<mxfile host="app.diagrams.net" modified="2023-11-06T15:55:28.172Z" agent="Mozilla/5.0 (Windows NT 10.0; Win64; x64) AppleWebKit/537.36 (KHTML, like Gecko) Chrome/119.0.0.0 Safari/537.36 Edg/119.0.0.0" version="22.0.8" etag="HtU8Ba4h5aa789_YL9O1" type="github">
  <diagram name="第 1 页" id="mAptklXaa7QtppIx3Jmr">
    <mxGraphModel>
      <root>
        <mxCell id="0" />
        <mxCell id="1" parent="0" />
      </root>
    </mxGraphModel>
  </diagram>
</mxfile>
